<?xml version="1.0" encoding="UTF-8"?>
<svg version="1.1" xmlns="http://www.w3.org/2000/svg" width="16" height="16">
<path d="M0 0 C0.86625 -0.00773438 1.7325 -0.01546875 2.625 -0.0234375 C5 0.375 5 0.375 6.7890625 1.5859375 C8.39038277 3.95175906 8.40035579 5.53515158 8.375 8.375 C8.38273437 9.24125 8.39046875 10.1075 8.3984375 11 C8 13.375 8 13.375 6.7890625 15.1640625 C4.42324094 16.76538277 2.83984842 16.77535579 0 16.75 C-0.86625 16.75773437 -1.7325 16.76546875 -2.625 16.7734375 C-5 16.375 -5 16.375 -6.7890625 15.1640625 C-8.39038277 12.79824094 -8.40035579 11.21484842 -8.375 8.375 C-8.38273438 7.50875 -8.39046875 6.6425 -8.3984375 5.75 C-8 3.375 -8 3.375 -6.7890625 1.5859375 C-4.42324094 -0.01538277 -2.83984842 -0.02535579 0 0 Z " fill="#FC8108" transform="translate(8,-0.375)"/>
<path d="M0 0 C7.46765028 -0.36726149 7.46765028 -0.36726149 9.73828125 1.19921875 C11.40027056 3.57128398 11.40069005 5.12271468 11.375 8 C11.38273437 8.86625 11.39046875 9.7325 11.3984375 10.625 C11 13 11 13 9.73828125 14.80078125 C6.65630792 16.92699656 3.64489387 16.17925708 0 16 C0 15.67 0 15.34 0 15 C1.98 15 3.96 15 6 15 C5.835 14.13375 5.67 13.2675 5.5 12.375 C5.02781452 9.18774801 4.92344882 6.21514973 5 3 C5.99 3.66 6.98 4.32 8 5 C5.60490662 2.10067643 3.68754757 1.49831724 0 1 C0 0.67 0 0.34 0 0 Z " fill="#FD7F01" transform="translate(5,0)"/>
<path d="M0 0 C0.66 0 1.32 0 2 0 C2 0.99 2 1.98 2 3 C2.66 3 3.32 3 4 3 C4 4.98 4 6.96 4 9 C2.35 9.33 0.7 9.66 -1 10 C-2 5.25 -2 5.25 -2 3 C-1.34 3 -0.68 3 0 3 C0 2.01 0 1.02 0 0 Z " fill="#B88750" transform="translate(7,3)"/>
<path d="M0 0 C1.375 2.5625 1.375 2.5625 2 5 C1.01 4.01 0.02 3.02 -1 2 C-1.66 2.66 -2.32 3.32 -3 4 C-3 3.01 -3 2.02 -3 1 C-4.98 1.66 -6.96 2.32 -9 3 C-8.67 2.01 -8.34 1.02 -8 0 C-5.01122021 -1.4943899 -3.14997454 -0.91874257 0 0 Z " fill="#FA8A19" transform="translate(12,2)"/>
</svg>
